<mxfile host="Electron" agent="Mozilla/5.0 (Macintosh; Intel Mac OS X 10_15_7) AppleWebKit/537.36 (KHTML, like Gecko) draw.io/27.0.9 Chrome/134.0.6998.205 Electron/35.4.0 Safari/537.36" version="27.0.9">
  <diagram name="Strimzi mirroring architecture" id="MkFzuVWg3Ofl9TCSA3_j">
    <mxGraphModel dx="1426" dy="791" grid="1" gridSize="10" guides="1" tooltips="1" connect="1" arrows="1" fold="1" page="1" pageScale="1" pageWidth="827" pageHeight="1169" math="0" shadow="0">
      <root>
        <mxCell id="0" />
        <mxCell id="1" parent="0" />
        <mxCell id="Yvy-EgmFL5nBeR9nWpUw-85" value="" style="rounded=0;whiteSpace=wrap;html=1;" parent="1" vertex="1">
          <mxGeometry x="29" y="640" width="361" height="70" as="geometry" />
        </mxCell>
        <mxCell id="Yvy-EgmFL5nBeR9nWpUw-43" value="" style="rounded=0;whiteSpace=wrap;html=1;strokeWidth=2;" parent="1" vertex="1">
          <mxGeometry x="550" y="80" width="250" height="120" as="geometry" />
        </mxCell>
        <mxCell id="Yvy-EgmFL5nBeR9nWpUw-16" value="" style="rounded=0;whiteSpace=wrap;html=1;strokeWidth=2;" parent="1" vertex="1">
          <mxGeometry x="550" y="250" width="250" height="350" as="geometry" />
        </mxCell>
        <mxCell id="Yvy-EgmFL5nBeR9nWpUw-15" value="" style="rounded=0;whiteSpace=wrap;html=1;strokeWidth=2;" parent="1" vertex="1">
          <mxGeometry x="30" y="250" width="240" height="350" as="geometry" />
        </mxCell>
        <mxCell id="Yvy-EgmFL5nBeR9nWpUw-5" value="Primary Cluster" style="text;html=1;align=left;verticalAlign=middle;whiteSpace=wrap;rounded=0;fontStyle=1" parent="1" vertex="1">
          <mxGeometry x="29" y="220" width="180" height="30" as="geometry" />
        </mxCell>
        <mxCell id="Yvy-EgmFL5nBeR9nWpUw-9" value="Secondary Cluster" style="text;html=1;align=left;verticalAlign=middle;whiteSpace=wrap;rounded=0;fontStyle=1" parent="1" vertex="1">
          <mxGeometry x="550" y="220" width="174" height="30" as="geometry" />
        </mxCell>
        <mxCell id="Yvy-EgmFL5nBeR9nWpUw-12" value="IPsec&lt;div&gt;tunnels&lt;/div&gt;" style="ellipse;shape=cloud;whiteSpace=wrap;html=1;strokeWidth=2;" parent="1" vertex="1">
          <mxGeometry x="354" y="380" width="120" height="80" as="geometry" />
        </mxCell>
        <mxCell id="Yvy-EgmFL5nBeR9nWpUw-13" style="edgeStyle=orthogonalEdgeStyle;rounded=0;orthogonalLoop=1;jettySize=auto;html=1;entryX=0.1;entryY=0.563;entryDx=0;entryDy=0;entryPerimeter=0;strokeColor=#00FF00;" parent="1" source="Yvy-EgmFL5nBeR9nWpUw-11" target="Yvy-EgmFL5nBeR9nWpUw-12" edge="1">
          <mxGeometry relative="1" as="geometry">
            <Array as="points">
              <mxPoint x="340" y="366" />
              <mxPoint x="340" y="425" />
            </Array>
          </mxGeometry>
        </mxCell>
        <mxCell id="Yvy-EgmFL5nBeR9nWpUw-20" style="edgeStyle=orthogonalEdgeStyle;rounded=0;orthogonalLoop=1;jettySize=auto;html=1;entryX=0.625;entryY=0.2;entryDx=0;entryDy=0;entryPerimeter=0;strokeColor=#FF3333;" parent="1" source="Yvy-EgmFL5nBeR9nWpUw-19" target="Yvy-EgmFL5nBeR9nWpUw-12" edge="1">
          <mxGeometry relative="1" as="geometry">
            <Array as="points">
              <mxPoint x="429" y="368" />
            </Array>
          </mxGeometry>
        </mxCell>
        <mxCell id="Yvy-EgmFL5nBeR9nWpUw-31" style="edgeStyle=orthogonalEdgeStyle;rounded=0;orthogonalLoop=1;jettySize=auto;html=1;entryX=0.005;entryY=0.63;entryDx=0;entryDy=0;entryPerimeter=0;strokeColor=#00FF00;" parent="1" source="Yvy-EgmFL5nBeR9nWpUw-12" target="Yvy-EgmFL5nBeR9nWpUw-30" edge="1">
          <mxGeometry relative="1" as="geometry" />
        </mxCell>
        <mxCell id="Yvy-EgmFL5nBeR9nWpUw-32" value="" style="rounded=0;whiteSpace=wrap;html=1;strokeWidth=2;" parent="1" vertex="1">
          <mxGeometry x="30" y="80" width="440" height="120" as="geometry" />
        </mxCell>
        <mxCell id="Yvy-EgmFL5nBeR9nWpUw-33" value="HUB Cluster" style="text;html=1;align=left;verticalAlign=middle;whiteSpace=wrap;rounded=0;fontStyle=1" parent="1" vertex="1">
          <mxGeometry x="30" y="50" width="190" height="30" as="geometry" />
        </mxCell>
        <mxCell id="Yvy-EgmFL5nBeR9nWpUw-34" value="ACM" style="shape=image;verticalLabelPosition=bottom;labelBackgroundColor=default;verticalAlign=top;aspect=fixed;imageAspect=0;image=https://mp.s81c.com/pwb-production/f698056643634c2f0ae113bc292bf68f/product-icon-red-hat-advanced-cluster-management-for-kubernetes-rgb-128x128-e2367fc4-9ea5-44f6-bb2f-9f6629a8a35b_30387839-3481-4116-ac09-c28dbaa01a4e.jpg;fontStyle=1" parent="1" vertex="1">
          <mxGeometry x="80" y="111" width="58" height="58" as="geometry" />
        </mxCell>
        <mxCell id="Yvy-EgmFL5nBeR9nWpUw-35" value="ArgoCD" style="shape=image;verticalLabelPosition=bottom;labelBackgroundColor=default;verticalAlign=top;aspect=fixed;imageAspect=0;image=https://redhat-scholars.github.io/cloudnative-tutorials/_images/argocdlogo.png;fontStyle=1" parent="1" vertex="1">
          <mxGeometry x="189.66" y="111" width="45.34" height="58" as="geometry" />
        </mxCell>
        <mxCell id="Yvy-EgmFL5nBeR9nWpUw-38" value="&lt;b&gt;Git&lt;/b&gt;&lt;div&gt;&lt;b&gt;Single source of truth&lt;/b&gt;&lt;/div&gt;" style="verticalLabelPosition=bottom;html=1;verticalAlign=top;align=center;strokeColor=none;fillColor=#00BEF2;shape=mxgraph.azure.git_repository;" parent="1" vertex="1">
          <mxGeometry x="648" y="100" width="50" height="50" as="geometry" />
        </mxCell>
        <mxCell id="Yvy-EgmFL5nBeR9nWpUw-41" value="SubMariner" style="shape=image;verticalLabelPosition=bottom;labelBackgroundColor=default;verticalAlign=top;aspect=fixed;imageAspect=0;image=data:image/png,iVBORw0KGgoAAAANSUhEUgAAARgAAAEYCAYAAACHjumMAAAQp0lEQVR4nOzdC3SU5Z3H8f8TZnIlAQwTcusaaKhrgkLCKRZbhEgVTXTXC1tcW7HAqiiIWry1Kigra5WjHjVrXbV4qS4qS12VIHgJgrbrDUFIUBkkQZGQhBCSkHvCuyf2QMN9kswzT5433885nkMmk3d+8Zx8z8zknUmYAIAmBAaANgQGgDYEBoA2BAaANgQGgDYEBoA2BAaANgQGgDYEBoA2BAaANgQGgDYEBoA2BAaANgQGgDYEBoA2BAaANgQGgDYEBoA2BAaANgQGgDYEBoA2BAaANgQGgDYEBoA2BAaANp5Q3ljCjdMTHMcZJSIpIhIvItEiokK5AeijmkVknyPyjYj467b7v27+3w9adN+oth/uqKzMgbG5OZPCkxLOjM2dMEopdaqI+HTdHoAuaRbH2da2c/fGmqLP32t8fe3ahnVFX7SVVzrBvJGgBiZqVEZs3MypU+PP/elkR8lYJRIRzOMD0OqbhnWbX9yz+KUXazf6i2XHjh4fMCiBiRg+tF/Sgt9Mjf7JqPtEZEgwjgnAHNWuXt157Z0zqt9+r7onx+nX0yHxM6aclfLUfa+GpyZeIyL9e3o8AL1AmJwae2HOlRHD0yJbd1YUte2qbOrOYbp9Dyb26isy0+Zetag9XJ3HE7WAmznlu59eek3Fwsde6+pXdisMg+f8elTCTTPe5x4L0Ec44tRHxj20a/w/39rsL90f6Jd1KTCexMEyaMHtv/SdM+YRERXfraEArNWys+K10ktn/rJtV2V9INcPODCeRF/Y0GV/eMKbPOSqHi0EYLXWsooPv3njw0ua71tUdqLrBhyYYW8/c1NkevpDPV4HwAWc77aeO3V0i7+0/HjXCuilAimFr1wRmZ5+X9C2AbCcSjn52QdfjhieFn28a50wMKn5C6YNGJr0vHDSHIBOvMkJ44e99fwH0dkjjvl87HHPg4m+7caUIZefv1xEERcAR1CikiKzMmOqX3h1xdE+f8zAxJyWEZv24C3viqh/0LoQgNU88YNGtdc2Lm/cULTr8M8d8yGSb/71C0XU6drXAbBdePw9M58MTz/5iDssRw1M7Pln+aJHZ14TkmkArOdt7/fjpAU3zz788qMG5qQZl80SUeEhWQbAFWLGjloQlZWZ3PmyIwLTf+zosJjRp10d0mUA3CDupBm/mNr5giMCM+A/fjtTRJJCOguAK8Tl5kz1JA4++PEhgYnMzoyNSxtyr4lhAOynlDo1Lm/iuAMfHxKY2HFjcpTIICPLALhCVFZm3oF/HxKY6LPOmGhkEQDXGJA74WBHDg1MdsYkI4sAuIdS2fFzpp4snQMTlze+v3LUj4wOA+AGYWE5E3Olc2AcR2WI4q0vAfTc4JFDJ8gh92DOn5hhdBEA11BKjZfU1L8HRikn1ewkAC4yJPb04f07PcnrDDa5BoDbOIM7BUYNMDkFgLsoUQM7/5qaFzcCCCInvHNgAnp/XgAIjAojKgC0ITAAtCEwALQhMAC0ITAAtCEwALQhMAC0ITAAtCEwALQhMAC08ZgeYEibiGyoLS0vkuLN/padFaVNG4r3iEi9iLSaHge4QcNnRUV9JjCOSE3jZ0VL6td+tGLf2k8+aFxfXG16E+B2fSEwTfWRcfl7/+2m+2sKCnebHgP0Je4NjCP7mraWPrt76TsP1z713DbTc4C+yJWBaS2rWFN2b/60fStWl5jeAvRl7gtMm+eJ7VfOvb7FX9pmegrQ17np19T7awtWz9k8fOy1xAXoHVwTmOYtJffvmD3vMdM7APydKwLTvKXkke1Xzp1vegeAQ1n/HEzDuk33l06+7nbTOwAcye57MI6U7PztojtNzwBwdFYHpmrxkhtb/CU8oQv0UtYGptm/bWH5vY+/bnoHgGOzNTBfl92Rf5fpEQCOz8rAVBV/+XjDJ584pncAOD4LA+PU1t758FOmVwA4MesC07yldGXjhs11pncAODHrArNv7cfLTW8AEBjbAtNau9FfYHoEgMDYFRjH+bjxjVV7TM8AEBirAtPy5fa3TW8AEDirArN3VeG7pjcACJxVgQlz1GbTGwAEzqbANFW88yHPvwAWsSgwTr1s5g4MYBOLAqP4g2iAZSwKDADbEBgA2lj/lpk6RWVlnuZNSkg1vQOwUcNnRf9HYI4jfsaUG+Pycqab3gHYaMeseWN5iARAGwIDQBsCA0AbAgNAGwIDQBsCA0AbAgNAGwIDQBsCA0AbAgNAGwIDQBsCA0AbAgNAGwIDQBsCA0AbAgNAGwIDQBsCA0AbAgNAGwIDQBsCA0AbAgNAGwIDQBsCA0AbAgNAGwIDQBsCA0AbAgNAG/74/XE5f3Uc/h+ha5SI1xGJVkpSRSRdRAaY3mQKPzzHsWP2/D+KdPwHdF9s7oQET6IvOyb7tOyorIxx3uSEs0VUuOldoUBgAM3qVrxXISIrqxcvXdnxcVRW5qD+107LGzhi6OXepIRJbn6qwrXfGNBbNa4vrq68+uYX/Gdemlv58DMZjjgfm96ki02B6Wd6ABBslY8u/so/9tKf1Xzuv13EqTO9J9isCYwjEmN6A6BD267K1u8umn7/1nOn/qClrPwZ03uCyZrAKJHowXOmxZreAejS4i+t2Xrm5OnNW0qeNr0lWKwJzPeU/KPpCYBu238997qmLdv+vePOjektPWVVYCLT03JMbwB0ayurbN026cp5NcsLrxSR/ab39IRVgYm94OyJpjcAofLd9fP/u3lLidXnYVkVGCUyLiors7/pHUColN36wG3iyDrTO7rLqsCISFT/vJxJpkcAodLweVH115OuyHEc5wvTW7rDtsBI3Lgx55veAIRSs7+0bvcjz9xtekd3WBeYiOFpF3oSfRGmdwChtPeV5cscR4pM7+gq6wIjSiUMmnLBeaZnAKHUWlbZXvfmu/mmd3SVfYEREd8N0+aZ3gCEWsXDzz0ljpSY3tEVVgZGlMpOKVw60/QMIJRatpbsr12xer7pHV1hZ2BEZMDQxMdic3PSTO8AQqnq+aUvOOJUmd4RKGsDIyKexDtmPyipqaZ3ACHT+PEmp33H7ndM7wiUzYERb3LCJam3X32D6R1AKNWsLFxpekOgrA5Mh7i8nAeGvfSfZ5reAYRKw/pia87stT4wIhIeecbpq1IeuffnpocAodC6s9wvIi2mdwTCDYHp0H/AP41/PTn/notMDwF0a9qwuckR2WR6RyDcEpgOUQPzzl568pJHZ5keAuimxNlqekMg3BSYDp6Yn2Tlp/9l2Z8iszL67N+igfs5ospNbwiE2wLzvfDkhF8N+/MTX6TkL7g5KpvQwH08LftrTW8IhCsD8zcqaUBezqKhy/5rc+pLj10eMTzNxd8r+prIBjve6a4v/NAlx50x6sVhq/70ZWr+PbfF5uac5kn09YXvGzCuz/xlR6VkeFze2b/v+E9EKtvKKtc0fFa0qaWsYmvj+uJS9bfTrxscRzWb3grrtNe9udqa0/dDqc8E5jA+T5JvclxezmTTQ+ACjmzZPGzcKaZn9EY8VACgDYEBoA2BAaANgQGgDYEBoA2BAaANgQGgDYEBoA2BAaANgQGgDYEBoA2BAaANgQGgDYEBoA2BAaANgQGgDYEBoA2BAaANgQGgDYEBoA2BAaANgQGgDYEBoA2BAaANgQGgDYEBoA2BAaANgQGgTec/ft8kIvsMbgGs5Ig0mN7QWx0MzI7Z86bJbJlmdg4AN+EhEgBtCAwAbQgMYKGGuDCP6Q2BIDCAhfaHOTGmNwSCwAA2cmSI6QmBIDCAhZSSH5reEAgCA1jG8+OsfiLqVNM7AkFgAMtE+QZ0xKW/6R2BIDCAZQZOmphlekOgCAxgmX6pg39qekOgCAxgkfDhad6o7BEXmd4RKAIDWGTAA/dcqsSOX1ELgQHs4UnyeQePGjrP9I6uIDCAJeKnT5mqLPn19AEEBrBBRobEz5hyo+kZXUVgAAskXJxziSgZYXpHVxEYoJeLO2/CDwbPuOxR0zu6g8AAvVh4elpE6uMLVoiSFNNbuoPAAL1Y2rMPPihKWffQ6AACA/RSqfn3/M6TkjDL9I6esOJdsYC+5uQlj94W85OshaZ39BSBAXoRb5KvX+pr+Q9F+ZLnmN4SDAQG6CUGjhyp4hfNfTLClzzd9JZgITBAL5B0+6xzB11z2QMiMtL0lmAiMIAh3kSfGjjlgrMGTrngBm9SwsWm9+hAYIBQy0gV3znnjB98w7S7lVITTM/RicAAIRCXNyHBm56WHTl82M8G5OZMFiWnmN4UCgcDc9L0X/wqevQIa96KD+i1HOknIhGeMdnx0b64JBGVJiKppmeZcDAw0dkj8uJycy4zOweAm3AmLwBtCAwAbQgMAG0IDABtCAwAbQgMAG0IDABtCAwAbQgMAG06B8YxuAOA6ziHBKbd4BIArqPaDgbGEWkyOwaAmzjiNB0MjBKnyuwcAO6iqjo9RFLlJqcAcJX2Fm90xcHAtH5X+Y3ZPQBc5Kvm1wraDwam4fNNm8zuAeAWTd6od6Tzr6kb/dv9Ik6D0VUAXKFu0eNvSefAtPlLnHZRnxpdBcAN6pu/+uY9OfxM3vqCwhXGJgFwhdad5e/WrnynXg4PTO2K91YZWwXAFRrWF7914N9hh31io4isN7IKgBu01xYUvnHgg0MC01ZWsb/8rQ9n8rIBAN3RWlZRUPfmmoOnvBzxauqqa2752BH1fsiXAbBe9cvLn+n88VHfrqHq6SX5IVsEwB0cZ93el5cXdL7oqIGpeWnlnx2RrSEbBsB27RWPPXdF267K1s4X9jvqNaurJSw2ujo6e8QlIZsHwFoNFWVP7pzxu2cPv/yogenQ9kXpxpgJY+I88YPGal8HwFqOI9u/u+K2yW27KpoP/9wx3zKzubJSvl74x7ki8hftCwFYa/cji29p3LCp5mifO/578q5ZIztm3XW1I06lrnEArOU0+0vu3fNKwf8c6wrHfIh0QLO/tLLZG7lk4JjTzxMRX9AnArBSbcHqO7f/65wFzr76Y17nhIHp0PLXT2vbnfbC/mOzZ4iIN5gjAdinPiLugW8nTpl/ousFFJgOjR99vjvih0M3RJwyNFdEInu8EIB9HJGaFYV3fTtxyrxArh5wYDrUvrnaX1tasTj29B9l9IuN+VG3RwKwUV3disKrdsyeH/CJuF0KTIf2r/wN9e9/8nL0GaNO9cQPyuzyRAA2+qr0iWVjq+74fZdeRtTlwHRo37PXqXv3g1cj433bvKekjVRKDerOcQD0ek5bWeUL26f+5l8al72xq6tfrHp6655EX2RK/oK5MaNHXCciyT09HoBeoa2houz5qrv/cH/dm6u3dPcgPQ7MAVFjRnqTF950a0T6sHkiKjxYxwUQas6aPQUfzd01+5Z1PT1S0AJzQNSFk4acNOnMi6OzMnO9yUN+3nFRsG8DQFC1i8gXjeuLV9W+vvqFqmdf3hCsAwc9MJ1FZWdEeROHZMWen5OllGTE5o4fplRYmiMSr0RiRSRC9wYA32sVkUYRZ7eI2tVQUbO97dPPtrR/W75xb/HXaxvfWLnb9EAA6JLjvxYJAHqAwADQhsAA0IbAANCGwADQhsAA0IbAANCGwADQhsAA0IbAANCGwADQhsAA0IbAANCGwADQhsAA0IbAANCGwADQhsAA0IbAANCGwADQhsAA0IbAANCGwADQhsAA0IbAANCGwADQ5v8DAAD//w3i2F0bNKxPAAAAAElFTkSuQmCC;fontStyle=1" parent="1" vertex="1">
          <mxGeometry x="296" y="111" width="58" height="58" as="geometry" />
        </mxCell>
        <mxCell id="Yvy-EgmFL5nBeR9nWpUw-51" value="" style="shape=image;verticalLabelPosition=bottom;labelBackgroundColor=default;verticalAlign=top;aspect=fixed;imageAspect=0;image=https://download.logo.wine/logo/OpenShift/OpenShift-Logo.wine.png;" parent="1" vertex="1">
          <mxGeometry x="703" y="250" width="87" height="58" as="geometry" />
        </mxCell>
        <mxCell id="Yvy-EgmFL5nBeR9nWpUw-52" value="" style="shape=image;verticalLabelPosition=bottom;labelBackgroundColor=default;verticalAlign=top;aspect=fixed;imageAspect=0;image=https://download.logo.wine/logo/OpenShift/OpenShift-Logo.wine.png;" parent="1" vertex="1">
          <mxGeometry x="383" y="80" width="87" height="58" as="geometry" />
        </mxCell>
        <mxCell id="Yvy-EgmFL5nBeR9nWpUw-53" value="" style="rounded=0;whiteSpace=wrap;html=1;fillColor=none;" parent="1" vertex="1">
          <mxGeometry x="50" y="310" width="200" height="160" as="geometry" />
        </mxCell>
        <mxCell id="Yvy-EgmFL5nBeR9nWpUw-56" value="" style="rounded=0;whiteSpace=wrap;html=1;fillColor=none;" parent="1" vertex="1">
          <mxGeometry x="50" y="500" width="205" height="80" as="geometry" />
        </mxCell>
        <mxCell id="Yvy-EgmFL5nBeR9nWpUw-54" value="&lt;b&gt;NS: kafka-live&lt;/b&gt;" style="text;html=1;align=left;verticalAlign=middle;whiteSpace=wrap;rounded=0;" parent="1" vertex="1">
          <mxGeometry x="50" y="287" width="160" height="30" as="geometry" />
        </mxCell>
        <mxCell id="Yvy-EgmFL5nBeR9nWpUw-55" style="edgeStyle=orthogonalEdgeStyle;rounded=0;orthogonalLoop=1;jettySize=auto;html=1;entryX=0.995;entryY=0.63;entryDx=0;entryDy=0;entryPerimeter=0;strokeColor=#FF3333;" parent="1" source="Yvy-EgmFL5nBeR9nWpUw-12" target="Yvy-EgmFL5nBeR9nWpUw-28" edge="1">
          <mxGeometry relative="1" as="geometry">
            <Array as="points">
              <mxPoint x="420" y="552" />
            </Array>
          </mxGeometry>
        </mxCell>
        <mxCell id="Yvy-EgmFL5nBeR9nWpUw-57" value="&lt;b&gt;NS: kafka-dr&lt;/b&gt;" style="text;html=1;align=left;verticalAlign=middle;whiteSpace=wrap;rounded=0;" parent="1" vertex="1">
          <mxGeometry x="50" y="474" width="160" height="30" as="geometry" />
        </mxCell>
        <mxCell id="Yvy-EgmFL5nBeR9nWpUw-18" value="Service" style="rounded=0;whiteSpace=wrap;html=1;strokeColor=#FF0000;" parent="1" vertex="1">
          <mxGeometry x="115" y="507" width="120" height="60" as="geometry" />
        </mxCell>
        <mxCell id="Yvy-EgmFL5nBeR9nWpUw-3" value="Kafka" style="rounded=0;whiteSpace=wrap;html=1;" parent="1" vertex="1">
          <mxGeometry x="115" y="330" width="120" height="30" as="geometry" />
        </mxCell>
        <mxCell id="Yvy-EgmFL5nBeR9nWpUw-6" value="MirrorMaker2" style="rounded=0;whiteSpace=wrap;html=1;strokeColor=#FF0000;" parent="1" vertex="1">
          <mxGeometry x="115" y="422.75" width="120" height="35" as="geometry" />
        </mxCell>
        <mxCell id="Yvy-EgmFL5nBeR9nWpUw-28" value="" style="aspect=fixed;sketch=0;html=1;dashed=0;whitespace=wrap;verticalLabelPosition=bottom;verticalAlign=top;fillColor=#2875E2;strokeColor=#ffffff;points=[[0.005,0.63,0],[0.1,0.2,0],[0.9,0.2,0],[0.5,0,0],[0.995,0.63,0],[0.72,0.99,0],[0.5,1,0],[0.28,0.99,0]];shape=mxgraph.kubernetes.icon2;prIcon=svc" parent="1" vertex="1">
          <mxGeometry x="222" y="537" width="25" height="24" as="geometry" />
        </mxCell>
        <mxCell id="Yvy-EgmFL5nBeR9nWpUw-59" value="" style="rounded=0;whiteSpace=wrap;html=1;fillColor=none;" parent="1" vertex="1">
          <mxGeometry x="570" y="310" width="210" height="160" as="geometry" />
        </mxCell>
        <mxCell id="Yvy-EgmFL5nBeR9nWpUw-60" value="&lt;b&gt;NS: kafka-dr&lt;/b&gt;" style="text;html=1;align=left;verticalAlign=middle;whiteSpace=wrap;rounded=0;" parent="1" vertex="1">
          <mxGeometry x="576" y="287" width="160" height="30" as="geometry" />
        </mxCell>
        <mxCell id="Yvy-EgmFL5nBeR9nWpUw-8" value="Kafka" style="rounded=0;whiteSpace=wrap;html=1;" parent="1" vertex="1">
          <mxGeometry x="590" y="330" width="120" height="30" as="geometry" />
        </mxCell>
        <mxCell id="Yvy-EgmFL5nBeR9nWpUw-10" value="MirrorMaker2" style="rounded=0;whiteSpace=wrap;html=1;strokeColor=#00FF00;" parent="1" vertex="1">
          <mxGeometry x="591" y="422.75" width="120" height="35" as="geometry" />
        </mxCell>
        <mxCell id="Yvy-EgmFL5nBeR9nWpUw-19" value="" style="aspect=fixed;sketch=0;html=1;dashed=0;whitespace=wrap;verticalLabelPosition=bottom;verticalAlign=top;fillColor=#2875E2;strokeColor=#ffffff;points=[[0.005,0.63,0],[0.1,0.2,0],[0.9,0.2,0],[0.5,0,0],[0.995,0.63,0],[0.72,0.99,0],[0.5,1,0],[0.28,0.99,0]];shape=mxgraph.kubernetes.icon2;prIcon=svc" parent="1" vertex="1">
          <mxGeometry x="580" y="351" width="25" height="24" as="geometry" />
        </mxCell>
        <mxCell id="Yvy-EgmFL5nBeR9nWpUw-61" value="" style="rounded=0;whiteSpace=wrap;html=1;fillColor=none;" parent="1" vertex="1">
          <mxGeometry x="570" y="500" width="210" height="80" as="geometry" />
        </mxCell>
        <mxCell id="Yvy-EgmFL5nBeR9nWpUw-62" value="&lt;b&gt;NS: kafka-live&lt;/b&gt;" style="text;html=1;align=left;verticalAlign=middle;whiteSpace=wrap;rounded=0;" parent="1" vertex="1">
          <mxGeometry x="570" y="474" width="160" height="30" as="geometry" />
        </mxCell>
        <mxCell id="Yvy-EgmFL5nBeR9nWpUw-17" value="Service" style="rounded=0;whiteSpace=wrap;html=1;strokeColor=#00FF00;" parent="1" vertex="1">
          <mxGeometry x="591" y="507" width="120" height="60" as="geometry" />
        </mxCell>
        <mxCell id="Yvy-EgmFL5nBeR9nWpUw-30" value="" style="aspect=fixed;sketch=0;html=1;dashed=0;whitespace=wrap;verticalLabelPosition=bottom;verticalAlign=top;fillColor=#2875E2;strokeColor=#ffffff;points=[[0.005,0.63,0],[0.1,0.2,0],[0.9,0.2,0],[0.5,0,0],[0.995,0.63,0],[0.72,0.99,0],[0.5,1,0],[0.28,0.99,0]];shape=mxgraph.kubernetes.icon2;prIcon=svc" parent="1" vertex="1">
          <mxGeometry x="580" y="535.0799999999999" width="25" height="24" as="geometry" />
        </mxCell>
        <mxCell id="Yvy-EgmFL5nBeR9nWpUw-64" value="SubMariner" style="shape=image;verticalLabelPosition=bottom;labelBackgroundColor=default;verticalAlign=top;aspect=fixed;imageAspect=0;image=data:image/png,iVBORw0KGgoAAAANSUhEUgAAARgAAAEYCAYAAACHjumMAAAQp0lEQVR4nOzdC3SU5Z3H8f8TZnIlAQwTcusaaKhrgkLCKRZbhEgVTXTXC1tcW7HAqiiIWry1Kigra5WjHjVrXbV4qS4qS12VIHgJgrbrDUFIUBkkQZGQhBCSkHvCuyf2QMN9kswzT5433885nkMmk3d+8Zx8z8zknUmYAIAmBAaANgQGgDYEBoA2BAaANgQGgDYEBoA2BAaANgQGgDYEBoA2BAaANgQGgDYEBoA2BAaANgQGgDYEBoA2BAaANgQGgDYEBoA2BAaANgQGgDYEBoA2BAaANgQGgDYEBoA2BAaANp5Q3ljCjdMTHMcZJSIpIhIvItEiokK5AeijmkVknyPyjYj467b7v27+3w9adN+oth/uqKzMgbG5OZPCkxLOjM2dMEopdaqI+HTdHoAuaRbH2da2c/fGmqLP32t8fe3ahnVFX7SVVzrBvJGgBiZqVEZs3MypU+PP/elkR8lYJRIRzOMD0OqbhnWbX9yz+KUXazf6i2XHjh4fMCiBiRg+tF/Sgt9Mjf7JqPtEZEgwjgnAHNWuXt157Z0zqt9+r7onx+nX0yHxM6aclfLUfa+GpyZeIyL9e3o8AL1AmJwae2HOlRHD0yJbd1YUte2qbOrOYbp9Dyb26isy0+Zetag9XJ3HE7WAmznlu59eek3Fwsde6+pXdisMg+f8elTCTTPe5x4L0Ec44tRHxj20a/w/39rsL90f6Jd1KTCexMEyaMHtv/SdM+YRERXfraEArNWys+K10ktn/rJtV2V9INcPODCeRF/Y0GV/eMKbPOSqHi0EYLXWsooPv3njw0ua71tUdqLrBhyYYW8/c1NkevpDPV4HwAWc77aeO3V0i7+0/HjXCuilAimFr1wRmZ5+X9C2AbCcSjn52QdfjhieFn28a50wMKn5C6YNGJr0vHDSHIBOvMkJ44e99fwH0dkjjvl87HHPg4m+7caUIZefv1xEERcAR1CikiKzMmOqX3h1xdE+f8zAxJyWEZv24C3viqh/0LoQgNU88YNGtdc2Lm/cULTr8M8d8yGSb/71C0XU6drXAbBdePw9M58MTz/5iDssRw1M7Pln+aJHZ14TkmkArOdt7/fjpAU3zz788qMG5qQZl80SUeEhWQbAFWLGjloQlZWZ3PmyIwLTf+zosJjRp10d0mUA3CDupBm/mNr5giMCM+A/fjtTRJJCOguAK8Tl5kz1JA4++PEhgYnMzoyNSxtyr4lhAOynlDo1Lm/iuAMfHxKY2HFjcpTIICPLALhCVFZm3oF/HxKY6LPOmGhkEQDXGJA74WBHDg1MdsYkI4sAuIdS2fFzpp4snQMTlze+v3LUj4wOA+AGYWE5E3Olc2AcR2WI4q0vAfTc4JFDJ8gh92DOn5hhdBEA11BKjZfU1L8HRikn1ewkAC4yJPb04f07PcnrDDa5BoDbOIM7BUYNMDkFgLsoUQM7/5qaFzcCCCInvHNgAnp/XgAIjAojKgC0ITAAtCEwALQhMAC0ITAAtCEwALQhMAC0ITAAtCEwALQhMAC08ZgeYEibiGyoLS0vkuLN/padFaVNG4r3iEi9iLSaHge4QcNnRUV9JjCOSE3jZ0VL6td+tGLf2k8+aFxfXG16E+B2fSEwTfWRcfl7/+2m+2sKCnebHgP0Je4NjCP7mraWPrt76TsP1z713DbTc4C+yJWBaS2rWFN2b/60fStWl5jeAvRl7gtMm+eJ7VfOvb7FX9pmegrQ17np19T7awtWz9k8fOy1xAXoHVwTmOYtJffvmD3vMdM7APydKwLTvKXkke1Xzp1vegeAQ1n/HEzDuk33l06+7nbTOwAcye57MI6U7PztojtNzwBwdFYHpmrxkhtb/CU8oQv0UtYGptm/bWH5vY+/bnoHgGOzNTBfl92Rf5fpEQCOz8rAVBV/+XjDJ584pncAOD4LA+PU1t758FOmVwA4MesC07yldGXjhs11pncAODHrArNv7cfLTW8AEBjbAtNau9FfYHoEgMDYFRjH+bjxjVV7TM8AEBirAtPy5fa3TW8AEDirArN3VeG7pjcACJxVgQlz1GbTGwAEzqbANFW88yHPvwAWsSgwTr1s5g4MYBOLAqP4g2iAZSwKDADbEBgA2lj/lpk6RWVlnuZNSkg1vQOwUcNnRf9HYI4jfsaUG+Pycqab3gHYaMeseWN5iARAGwIDQBsCA0AbAgNAGwIDQBsCA0AbAgNAGwIDQBsCA0AbAgNAGwIDQBsCA0AbAgNAGwIDQBsCA0AbAgNAGwIDQBsCA0AbAgNAGwIDQBsCA0AbAgNAGwIDQBsCA0AbAgNAGwIDQBsCA0AbAgNAG/74/XE5f3Uc/h+ha5SI1xGJVkpSRSRdRAaY3mQKPzzHsWP2/D+KdPwHdF9s7oQET6IvOyb7tOyorIxx3uSEs0VUuOldoUBgAM3qVrxXISIrqxcvXdnxcVRW5qD+107LGzhi6OXepIRJbn6qwrXfGNBbNa4vrq68+uYX/Gdemlv58DMZjjgfm96ki02B6Wd6ABBslY8u/so/9tKf1Xzuv13EqTO9J9isCYwjEmN6A6BD267K1u8umn7/1nOn/qClrPwZ03uCyZrAKJHowXOmxZreAejS4i+t2Xrm5OnNW0qeNr0lWKwJzPeU/KPpCYBu238997qmLdv+vePOjektPWVVYCLT03JMbwB0ayurbN026cp5NcsLrxSR/ab39IRVgYm94OyJpjcAofLd9fP/u3lLidXnYVkVGCUyLiors7/pHUColN36wG3iyDrTO7rLqsCISFT/vJxJpkcAodLweVH115OuyHEc5wvTW7rDtsBI3Lgx55veAIRSs7+0bvcjz9xtekd3WBeYiOFpF3oSfRGmdwChtPeV5cscR4pM7+gq6wIjSiUMmnLBeaZnAKHUWlbZXvfmu/mmd3SVfYEREd8N0+aZ3gCEWsXDzz0ljpSY3tEVVgZGlMpOKVw60/QMIJRatpbsr12xer7pHV1hZ2BEZMDQxMdic3PSTO8AQqnq+aUvOOJUmd4RKGsDIyKexDtmPyipqaZ3ACHT+PEmp33H7ndM7wiUzYERb3LCJam3X32D6R1AKNWsLFxpekOgrA5Mh7i8nAeGvfSfZ5reAYRKw/pia87stT4wIhIeecbpq1IeuffnpocAodC6s9wvIi2mdwTCDYHp0H/AP41/PTn/notMDwF0a9qwuckR2WR6RyDcEpgOUQPzzl568pJHZ5keAuimxNlqekMg3BSYDp6Yn2Tlp/9l2Z8iszL67N+igfs5ospNbwiE2wLzvfDkhF8N+/MTX6TkL7g5KpvQwH08LftrTW8IhCsD8zcqaUBezqKhy/5rc+pLj10eMTzNxd8r+prIBjve6a4v/NAlx50x6sVhq/70ZWr+PbfF5uac5kn09YXvGzCuz/xlR6VkeFze2b/v+E9EKtvKKtc0fFa0qaWsYmvj+uJS9bfTrxscRzWb3grrtNe9udqa0/dDqc8E5jA+T5JvclxezmTTQ+ACjmzZPGzcKaZn9EY8VACgDYEBoA2BAaANgQGgDYEBoA2BAaANgQGgDYEBoA2BAaANgQGgDYEBoA2BAaANgQGgDYEBoA2BAaANgQGgDYEBoA2BAaANgQGgDYEBoA2BAaANgQGgDYEBoA2BAaANgQGgDYEBoA2BAaANgQGgTec/ft8kIvsMbgGs5Ig0mN7QWx0MzI7Z86bJbJlmdg4AN+EhEgBtCAwAbQgMYKGGuDCP6Q2BIDCAhfaHOTGmNwSCwAA2cmSI6QmBIDCAhZSSH5reEAgCA1jG8+OsfiLqVNM7AkFgAMtE+QZ0xKW/6R2BIDCAZQZOmphlekOgCAxgmX6pg39qekOgCAxgkfDhad6o7BEXmd4RKAIDWGTAA/dcqsSOX1ELgQHs4UnyeQePGjrP9I6uIDCAJeKnT5mqLPn19AEEBrBBRobEz5hyo+kZXUVgAAskXJxziSgZYXpHVxEYoJeLO2/CDwbPuOxR0zu6g8AAvVh4elpE6uMLVoiSFNNbuoPAAL1Y2rMPPihKWffQ6AACA/RSqfn3/M6TkjDL9I6esOJdsYC+5uQlj94W85OshaZ39BSBAXoRb5KvX+pr+Q9F+ZLnmN4SDAQG6CUGjhyp4hfNfTLClzzd9JZgITBAL5B0+6xzB11z2QMiMtL0lmAiMIAh3kSfGjjlgrMGTrngBm9SwsWm9+hAYIBQy0gV3znnjB98w7S7lVITTM/RicAAIRCXNyHBm56WHTl82M8G5OZMFiWnmN4UCgcDc9L0X/wqevQIa96KD+i1HOknIhGeMdnx0b64JBGVJiKppmeZcDAw0dkj8uJycy4zOweAm3AmLwBtCAwAbQgMAG0IDABtCAwAbQgMAG0IDABtCAwAbQgMAG06B8YxuAOA6ziHBKbd4BIArqPaDgbGEWkyOwaAmzjiNB0MjBKnyuwcAO6iqjo9RFLlJqcAcJX2Fm90xcHAtH5X+Y3ZPQBc5Kvm1wraDwam4fNNm8zuAeAWTd6od6Tzr6kb/dv9Ik6D0VUAXKFu0eNvSefAtPlLnHZRnxpdBcAN6pu/+uY9OfxM3vqCwhXGJgFwhdad5e/WrnynXg4PTO2K91YZWwXAFRrWF7914N9hh31io4isN7IKgBu01xYUvnHgg0MC01ZWsb/8rQ9n8rIBAN3RWlZRUPfmmoOnvBzxauqqa2752BH1fsiXAbBe9cvLn+n88VHfrqHq6SX5IVsEwB0cZ93el5cXdL7oqIGpeWnlnx2RrSEbBsB27RWPPXdF267K1s4X9jvqNaurJSw2ujo6e8QlIZsHwFoNFWVP7pzxu2cPv/yogenQ9kXpxpgJY+I88YPGal8HwFqOI9u/u+K2yW27KpoP/9wx3zKzubJSvl74x7ki8hftCwFYa/cji29p3LCp5mifO/578q5ZIztm3XW1I06lrnEArOU0+0vu3fNKwf8c6wrHfIh0QLO/tLLZG7lk4JjTzxMRX9AnArBSbcHqO7f/65wFzr76Y17nhIHp0PLXT2vbnfbC/mOzZ4iIN5gjAdinPiLugW8nTpl/ousFFJgOjR99vjvih0M3RJwyNFdEInu8EIB9HJGaFYV3fTtxyrxArh5wYDrUvrnaX1tasTj29B9l9IuN+VG3RwKwUV3disKrdsyeH/CJuF0KTIf2r/wN9e9/8nL0GaNO9cQPyuzyRAA2+qr0iWVjq+74fZdeRtTlwHRo37PXqXv3g1cj433bvKekjVRKDerOcQD0ek5bWeUL26f+5l8al72xq6tfrHp6655EX2RK/oK5MaNHXCciyT09HoBeoa2houz5qrv/cH/dm6u3dPcgPQ7MAVFjRnqTF950a0T6sHkiKjxYxwUQas6aPQUfzd01+5Z1PT1S0AJzQNSFk4acNOnMi6OzMnO9yUN+3nFRsG8DQFC1i8gXjeuLV9W+vvqFqmdf3hCsAwc9MJ1FZWdEeROHZMWen5OllGTE5o4fplRYmiMSr0RiRSRC9wYA32sVkUYRZ7eI2tVQUbO97dPPtrR/W75xb/HXaxvfWLnb9EAA6JLjvxYJAHqAwADQhsAA0IbAANCGwADQhsAA0IbAANCGwADQhsAA0IbAANCGwADQhsAA0IbAANCGwADQhsAA0IbAANCGwADQhsAA0IbAANCGwADQhsAA0IbAANCGwADQhsAA0IbAANCGwADQ5v8DAAD//w3i2F0bNKxPAAAAAElFTkSuQmCC;fontStyle=1;fontSize=10;strokeWidth=5;" parent="1" vertex="1">
          <mxGeometry x="66" y="520" width="28" height="28" as="geometry" />
        </mxCell>
        <mxCell id="Yvy-EgmFL5nBeR9nWpUw-65" value="SubMariner" style="shape=image;verticalLabelPosition=bottom;labelBackgroundColor=default;verticalAlign=top;aspect=fixed;imageAspect=0;image=data:image/png,iVBORw0KGgoAAAANSUhEUgAAARgAAAEYCAYAAACHjumMAAAQp0lEQVR4nOzdC3SU5Z3H8f8TZnIlAQwTcusaaKhrgkLCKRZbhEgVTXTXC1tcW7HAqiiIWry1Kigra5WjHjVrXbV4qS4qS12VIHgJgrbrDUFIUBkkQZGQhBCSkHvCuyf2QMN9kswzT5433885nkMmk3d+8Zx8z8zknUmYAIAmBAaANgQGgDYEBoA2BAaANgQGgDYEBoA2BAaANgQGgDYEBoA2BAaANgQGgDYEBoA2BAaANgQGgDYEBoA2BAaANgQGgDYEBoA2BAaANgQGgDYEBoA2BAaANgQGgDYEBoA2BAaANp5Q3ljCjdMTHMcZJSIpIhIvItEiokK5AeijmkVknyPyjYj467b7v27+3w9adN+oth/uqKzMgbG5OZPCkxLOjM2dMEopdaqI+HTdHoAuaRbH2da2c/fGmqLP32t8fe3ahnVFX7SVVzrBvJGgBiZqVEZs3MypU+PP/elkR8lYJRIRzOMD0OqbhnWbX9yz+KUXazf6i2XHjh4fMCiBiRg+tF/Sgt9Mjf7JqPtEZEgwjgnAHNWuXt157Z0zqt9+r7onx+nX0yHxM6aclfLUfa+GpyZeIyL9e3o8AL1AmJwae2HOlRHD0yJbd1YUte2qbOrOYbp9Dyb26isy0+Zetag9XJ3HE7WAmznlu59eek3Fwsde6+pXdisMg+f8elTCTTPe5x4L0Ec44tRHxj20a/w/39rsL90f6Jd1KTCexMEyaMHtv/SdM+YRERXfraEArNWys+K10ktn/rJtV2V9INcPODCeRF/Y0GV/eMKbPOSqHi0EYLXWsooPv3njw0ua71tUdqLrBhyYYW8/c1NkevpDPV4HwAWc77aeO3V0i7+0/HjXCuilAimFr1wRmZ5+X9C2AbCcSjn52QdfjhieFn28a50wMKn5C6YNGJr0vHDSHIBOvMkJ44e99fwH0dkjjvl87HHPg4m+7caUIZefv1xEERcAR1CikiKzMmOqX3h1xdE+f8zAxJyWEZv24C3viqh/0LoQgNU88YNGtdc2Lm/cULTr8M8d8yGSb/71C0XU6drXAbBdePw9M58MTz/5iDssRw1M7Pln+aJHZ14TkmkArOdt7/fjpAU3zz788qMG5qQZl80SUeEhWQbAFWLGjloQlZWZ3PmyIwLTf+zosJjRp10d0mUA3CDupBm/mNr5giMCM+A/fjtTRJJCOguAK8Tl5kz1JA4++PEhgYnMzoyNSxtyr4lhAOynlDo1Lm/iuAMfHxKY2HFjcpTIICPLALhCVFZm3oF/HxKY6LPOmGhkEQDXGJA74WBHDg1MdsYkI4sAuIdS2fFzpp4snQMTlze+v3LUj4wOA+AGYWE5E3Olc2AcR2WI4q0vAfTc4JFDJ8gh92DOn5hhdBEA11BKjZfU1L8HRikn1ewkAC4yJPb04f07PcnrDDa5BoDbOIM7BUYNMDkFgLsoUQM7/5qaFzcCCCInvHNgAnp/XgAIjAojKgC0ITAAtCEwALQhMAC0ITAAtCEwALQhMAC0ITAAtCEwALQhMAC08ZgeYEibiGyoLS0vkuLN/padFaVNG4r3iEi9iLSaHge4QcNnRUV9JjCOSE3jZ0VL6td+tGLf2k8+aFxfXG16E+B2fSEwTfWRcfl7/+2m+2sKCnebHgP0Je4NjCP7mraWPrt76TsP1z713DbTc4C+yJWBaS2rWFN2b/60fStWl5jeAvRl7gtMm+eJ7VfOvb7FX9pmegrQ17np19T7awtWz9k8fOy1xAXoHVwTmOYtJffvmD3vMdM7APydKwLTvKXkke1Xzp1vegeAQ1n/HEzDuk33l06+7nbTOwAcye57MI6U7PztojtNzwBwdFYHpmrxkhtb/CU8oQv0UtYGptm/bWH5vY+/bnoHgGOzNTBfl92Rf5fpEQCOz8rAVBV/+XjDJ584pncAOD4LA+PU1t758FOmVwA4MesC07yldGXjhs11pncAODHrArNv7cfLTW8AEBjbAtNau9FfYHoEgMDYFRjH+bjxjVV7TM8AEBirAtPy5fa3TW8AEDirArN3VeG7pjcACJxVgQlz1GbTGwAEzqbANFW88yHPvwAWsSgwTr1s5g4MYBOLAqP4g2iAZSwKDADbEBgA2lj/lpk6RWVlnuZNSkg1vQOwUcNnRf9HYI4jfsaUG+Pycqab3gHYaMeseWN5iARAGwIDQBsCA0AbAgNAGwIDQBsCA0AbAgNAGwIDQBsCA0AbAgNAGwIDQBsCA0AbAgNAGwIDQBsCA0AbAgNAGwIDQBsCA0AbAgNAGwIDQBsCA0AbAgNAGwIDQBsCA0AbAgNAGwIDQBsCA0AbAgNAG/74/XE5f3Uc/h+ha5SI1xGJVkpSRSRdRAaY3mQKPzzHsWP2/D+KdPwHdF9s7oQET6IvOyb7tOyorIxx3uSEs0VUuOldoUBgAM3qVrxXISIrqxcvXdnxcVRW5qD+107LGzhi6OXepIRJbn6qwrXfGNBbNa4vrq68+uYX/Gdemlv58DMZjjgfm96ki02B6Wd6ABBslY8u/so/9tKf1Xzuv13EqTO9J9isCYwjEmN6A6BD267K1u8umn7/1nOn/qClrPwZ03uCyZrAKJHowXOmxZreAejS4i+t2Xrm5OnNW0qeNr0lWKwJzPeU/KPpCYBu238997qmLdv+vePOjektPWVVYCLT03JMbwB0ayurbN026cp5NcsLrxSR/ab39IRVgYm94OyJpjcAofLd9fP/u3lLidXnYVkVGCUyLiors7/pHUColN36wG3iyDrTO7rLqsCISFT/vJxJpkcAodLweVH115OuyHEc5wvTW7rDtsBI3Lgx55veAIRSs7+0bvcjz9xtekd3WBeYiOFpF3oSfRGmdwChtPeV5cscR4pM7+gq6wIjSiUMmnLBeaZnAKHUWlbZXvfmu/mmd3SVfYEREd8N0+aZ3gCEWsXDzz0ljpSY3tEVVgZGlMpOKVw60/QMIJRatpbsr12xer7pHV1hZ2BEZMDQxMdic3PSTO8AQqnq+aUvOOJUmd4RKGsDIyKexDtmPyipqaZ3ACHT+PEmp33H7ndM7wiUzYERb3LCJam3X32D6R1AKNWsLFxpekOgrA5Mh7i8nAeGvfSfZ5reAYRKw/pia87stT4wIhIeecbpq1IeuffnpocAodC6s9wvIi2mdwTCDYHp0H/AP41/PTn/notMDwF0a9qwuckR2WR6RyDcEpgOUQPzzl568pJHZ5keAuimxNlqekMg3BSYDp6Yn2Tlp/9l2Z8iszL67N+igfs5ospNbwiE2wLzvfDkhF8N+/MTX6TkL7g5KpvQwH08LftrTW8IhCsD8zcqaUBezqKhy/5rc+pLj10eMTzNxd8r+prIBjve6a4v/NAlx50x6sVhq/70ZWr+PbfF5uac5kn09YXvGzCuz/xlR6VkeFze2b/v+E9EKtvKKtc0fFa0qaWsYmvj+uJS9bfTrxscRzWb3grrtNe9udqa0/dDqc8E5jA+T5JvclxezmTTQ+ACjmzZPGzcKaZn9EY8VACgDYEBoA2BAaANgQGgDYEBoA2BAaANgQGgDYEBoA2BAaANgQGgDYEBoA2BAaANgQGgDYEBoA2BAaANgQGgDYEBoA2BAaANgQGgDYEBoA2BAaANgQGgDYEBoA2BAaANgQGgDYEBoA2BAaANgQGgTec/ft8kIvsMbgGs5Ig0mN7QWx0MzI7Z86bJbJlmdg4AN+EhEgBtCAwAbQgMYKGGuDCP6Q2BIDCAhfaHOTGmNwSCwAA2cmSI6QmBIDCAhZSSH5reEAgCA1jG8+OsfiLqVNM7AkFgAMtE+QZ0xKW/6R2BIDCAZQZOmphlekOgCAxgmX6pg39qekOgCAxgkfDhad6o7BEXmd4RKAIDWGTAA/dcqsSOX1ELgQHs4UnyeQePGjrP9I6uIDCAJeKnT5mqLPn19AEEBrBBRobEz5hyo+kZXUVgAAskXJxziSgZYXpHVxEYoJeLO2/CDwbPuOxR0zu6g8AAvVh4elpE6uMLVoiSFNNbuoPAAL1Y2rMPPihKWffQ6AACA/RSqfn3/M6TkjDL9I6esOJdsYC+5uQlj94W85OshaZ39BSBAXoRb5KvX+pr+Q9F+ZLnmN4SDAQG6CUGjhyp4hfNfTLClzzd9JZgITBAL5B0+6xzB11z2QMiMtL0lmAiMIAh3kSfGjjlgrMGTrngBm9SwsWm9+hAYIBQy0gV3znnjB98w7S7lVITTM/RicAAIRCXNyHBm56WHTl82M8G5OZMFiWnmN4UCgcDc9L0X/wqevQIa96KD+i1HOknIhGeMdnx0b64JBGVJiKppmeZcDAw0dkj8uJycy4zOweAm3AmLwBtCAwAbQgMAG0IDABtCAwAbQgMAG0IDABtCAwAbQgMAG06B8YxuAOA6ziHBKbd4BIArqPaDgbGEWkyOwaAmzjiNB0MjBKnyuwcAO6iqjo9RFLlJqcAcJX2Fm90xcHAtH5X+Y3ZPQBc5Kvm1wraDwam4fNNm8zuAeAWTd6od6Tzr6kb/dv9Ik6D0VUAXKFu0eNvSefAtPlLnHZRnxpdBcAN6pu/+uY9OfxM3vqCwhXGJgFwhdad5e/WrnynXg4PTO2K91YZWwXAFRrWF7914N9hh31io4isN7IKgBu01xYUvnHgg0MC01ZWsb/8rQ9n8rIBAN3RWlZRUPfmmoOnvBzxauqqa2752BH1fsiXAbBe9cvLn+n88VHfrqHq6SX5IVsEwB0cZ93el5cXdL7oqIGpeWnlnx2RrSEbBsB27RWPPXdF267K1s4X9jvqNaurJSw2ujo6e8QlIZsHwFoNFWVP7pzxu2cPv/yogenQ9kXpxpgJY+I88YPGal8HwFqOI9u/u+K2yW27KpoP/9wx3zKzubJSvl74x7ki8hftCwFYa/cji29p3LCp5mifO/578q5ZIztm3XW1I06lrnEArOU0+0vu3fNKwf8c6wrHfIh0QLO/tLLZG7lk4JjTzxMRX9AnArBSbcHqO7f/65wFzr76Y17nhIHp0PLXT2vbnfbC/mOzZ4iIN5gjAdinPiLugW8nTpl/ousFFJgOjR99vjvih0M3RJwyNFdEInu8EIB9HJGaFYV3fTtxyrxArh5wYDrUvrnaX1tasTj29B9l9IuN+VG3RwKwUV3disKrdsyeH/CJuF0KTIf2r/wN9e9/8nL0GaNO9cQPyuzyRAA2+qr0iWVjq+74fZdeRtTlwHRo37PXqXv3g1cj433bvKekjVRKDerOcQD0ek5bWeUL26f+5l8al72xq6tfrHp6655EX2RK/oK5MaNHXCciyT09HoBeoa2houz5qrv/cH/dm6u3dPcgPQ7MAVFjRnqTF950a0T6sHkiKjxYxwUQas6aPQUfzd01+5Z1PT1S0AJzQNSFk4acNOnMi6OzMnO9yUN+3nFRsG8DQFC1i8gXjeuLV9W+vvqFqmdf3hCsAwc9MJ1FZWdEeROHZMWen5OllGTE5o4fplRYmiMSr0RiRSRC9wYA32sVkUYRZ7eI2tVQUbO97dPPtrR/W75xb/HXaxvfWLnb9EAA6JLjvxYJAHqAwADQhsAA0IbAANCGwADQhsAA0IbAANCGwADQhsAA0IbAANCGwADQhsAA0IbAANCGwADQhsAA0IbAANCGwADQhsAA0IbAANCGwADQhsAA0IbAANCGwADQhsAA0IbAANCGwADQ5v8DAAD//w3i2F0bNKxPAAAAAElFTkSuQmCC;fontStyle=1;fontSize=10;strokeWidth=5;" parent="1" vertex="1">
          <mxGeometry x="736.06" y="520" width="28" height="28" as="geometry" />
        </mxCell>
        <mxCell id="Yvy-EgmFL5nBeR9nWpUw-79" value="" style="endArrow=none;html=1;rounded=0;strokeColor=#00FF00;strokeWidth=3;" parent="1" edge="1">
          <mxGeometry width="50" height="50" relative="1" as="geometry">
            <mxPoint x="35" y="665" as="sourcePoint" />
            <mxPoint x="65" y="665" as="targetPoint" />
          </mxGeometry>
        </mxCell>
        <mxCell id="Yvy-EgmFL5nBeR9nWpUw-81" value="" style="endArrow=none;html=1;rounded=0;strokeColor=#FF0000;strokeWidth=3;" parent="1" edge="1">
          <mxGeometry width="50" height="50" relative="1" as="geometry">
            <mxPoint x="35" y="695" as="sourcePoint" />
            <mxPoint x="65" y="695" as="targetPoint" />
          </mxGeometry>
        </mxCell>
        <mxCell id="Yvy-EgmFL5nBeR9nWpUw-83" value="Enable mirroring from live to dr (enabled by default)" style="text;html=1;align=left;verticalAlign=middle;whiteSpace=wrap;rounded=0;" parent="1" vertex="1">
          <mxGeometry x="78.06" y="649" width="281.94" height="30" as="geometry" />
        </mxCell>
        <mxCell id="Yvy-EgmFL5nBeR9nWpUw-84" value="Enable mirroring from dr to live (enable to switch back)" style="text;html=1;align=left;verticalAlign=middle;whiteSpace=wrap;rounded=0;" parent="1" vertex="1">
          <mxGeometry x="78.06" y="679" width="301.94" height="30" as="geometry" />
        </mxCell>
        <mxCell id="Yvy-EgmFL5nBeR9nWpUw-87" value="" style="shape=image;verticalLabelPosition=bottom;labelBackgroundColor=default;verticalAlign=top;aspect=fixed;imageAspect=0;image=https://redhat-scholars.github.io/cloudnative-tutorials/_images/argocdlogo.png;fontStyle=1" parent="1" vertex="1">
          <mxGeometry x="690" y="262" width="21.89" height="28" as="geometry" />
        </mxCell>
        <mxCell id="Yvy-EgmFL5nBeR9nWpUw-90" value="" style="shape=image;verticalLabelPosition=bottom;labelBackgroundColor=default;verticalAlign=top;aspect=fixed;imageAspect=0;image=https://download.logo.wine/logo/OpenShift/OpenShift-Logo.wine.png;" parent="1" vertex="1">
          <mxGeometry x="183" y="250" width="87" height="58" as="geometry" />
        </mxCell>
        <mxCell id="Yvy-EgmFL5nBeR9nWpUw-91" value="" style="shape=image;verticalLabelPosition=bottom;labelBackgroundColor=default;verticalAlign=top;aspect=fixed;imageAspect=0;image=https://redhat-scholars.github.io/cloudnative-tutorials/_images/argocdlogo.png;fontStyle=1" parent="1" vertex="1">
          <mxGeometry x="170" y="262" width="21.89" height="28" as="geometry" />
        </mxCell>
        <mxCell id="Yvy-EgmFL5nBeR9nWpUw-96" value="" style="shape=image;verticalLabelPosition=bottom;labelBackgroundColor=default;verticalAlign=top;aspect=fixed;imageAspect=0;image=https://www.oomnitza.com/wp-content/uploads/2023/06/Prometheus-logo.png;" parent="1" vertex="1">
          <mxGeometry x="51.75" y="412" width="56.5" height="56.5" as="geometry" />
        </mxCell>
        <mxCell id="Yvy-EgmFL5nBeR9nWpUw-97" value="" style="shape=image;verticalLabelPosition=bottom;labelBackgroundColor=default;verticalAlign=top;aspect=fixed;imageAspect=0;image=https://www.oomnitza.com/wp-content/uploads/2023/06/Prometheus-logo.png;" parent="1" vertex="1">
          <mxGeometry x="718.25" y="408" width="56.5" height="56.5" as="geometry" />
        </mxCell>
        <mxCell id="Yvy-EgmFL5nBeR9nWpUw-106" value="" style="shape=image;verticalLabelPosition=bottom;labelBackgroundColor=default;verticalAlign=top;aspect=fixed;imageAspect=0;image=https://res.cloudinary.com/startup-grind/image/upload/c_fill,dpr_2.0,f_auto,g_center,q_auto:good/v1/gcs/platform-data-cncf/events/Strimzi%20icon%20color_AIt8JiF.png;" parent="1" vertex="1">
          <mxGeometry x="724.99" y="330" width="43.01" height="38.21" as="geometry" />
        </mxCell>
        <mxCell id="9GPCUyVxjq0LYoWIFZi_-1" value="ServiceExport" style="rounded=0;whiteSpace=wrap;html=1;strokeColor=#00FF00;" parent="1" vertex="1">
          <mxGeometry x="115" y="375" width="120" height="30" as="geometry" />
        </mxCell>
        <mxCell id="9GPCUyVxjq0LYoWIFZi_-2" value="" style="shape=image;verticalLabelPosition=bottom;labelBackgroundColor=default;verticalAlign=top;aspect=fixed;imageAspect=0;image=data:image/png,iVBORw0KGgoAAAANSUhEUgAAARgAAAEYCAYAAACHjumMAAAQp0lEQVR4nOzdC3SU5Z3H8f8TZnIlAQwTcusaaKhrgkLCKRZbhEgVTXTXC1tcW7HAqiiIWry1Kigra5WjHjVrXbV4qS4qS12VIHgJgrbrDUFIUBkkQZGQhBCSkHvCuyf2QMN9kswzT5433885nkMmk3d+8Zx8z8zknUmYAIAmBAaANgQGgDYEBoA2BAaANgQGgDYEBoA2BAaANgQGgDYEBoA2BAaANgQGgDYEBoA2BAaANgQGgDYEBoA2BAaANgQGgDYEBoA2BAaANgQGgDYEBoA2BAaANgQGgDYEBoA2BAaANp5Q3ljCjdMTHMcZJSIpIhIvItEiokK5AeijmkVknyPyjYj467b7v27+3w9adN+oth/uqKzMgbG5OZPCkxLOjM2dMEopdaqI+HTdHoAuaRbH2da2c/fGmqLP32t8fe3ahnVFX7SVVzrBvJGgBiZqVEZs3MypU+PP/elkR8lYJRIRzOMD0OqbhnWbX9yz+KUXazf6i2XHjh4fMCiBiRg+tF/Sgt9Mjf7JqPtEZEgwjgnAHNWuXt157Z0zqt9+r7onx+nX0yHxM6aclfLUfa+GpyZeIyL9e3o8AL1AmJwae2HOlRHD0yJbd1YUte2qbOrOYbp9Dyb26isy0+Zetag9XJ3HE7WAmznlu59eek3Fwsde6+pXdisMg+f8elTCTTPe5x4L0Ec44tRHxj20a/w/39rsL90f6Jd1KTCexMEyaMHtv/SdM+YRERXfraEArNWys+K10ktn/rJtV2V9INcPODCeRF/Y0GV/eMKbPOSqHi0EYLXWsooPv3njw0ua71tUdqLrBhyYYW8/c1NkevpDPV4HwAWc77aeO3V0i7+0/HjXCuilAimFr1wRmZ5+X9C2AbCcSjn52QdfjhieFn28a50wMKn5C6YNGJr0vHDSHIBOvMkJ44e99fwH0dkjjvl87HHPg4m+7caUIZefv1xEERcAR1CikiKzMmOqX3h1xdE+f8zAxJyWEZv24C3viqh/0LoQgNU88YNGtdc2Lm/cULTr8M8d8yGSb/71C0XU6drXAbBdePw9M58MTz/5iDssRw1M7Pln+aJHZ14TkmkArOdt7/fjpAU3zz788qMG5qQZl80SUeEhWQbAFWLGjloQlZWZ3PmyIwLTf+zosJjRp10d0mUA3CDupBm/mNr5giMCM+A/fjtTRJJCOguAK8Tl5kz1JA4++PEhgYnMzoyNSxtyr4lhAOynlDo1Lm/iuAMfHxKY2HFjcpTIICPLALhCVFZm3oF/HxKY6LPOmGhkEQDXGJA74WBHDg1MdsYkI4sAuIdS2fFzpp4snQMTlze+v3LUj4wOA+AGYWE5E3Olc2AcR2WI4q0vAfTc4JFDJ8gh92DOn5hhdBEA11BKjZfU1L8HRikn1ewkAC4yJPb04f07PcnrDDa5BoDbOIM7BUYNMDkFgLsoUQM7/5qaFzcCCCInvHNgAnp/XgAIjAojKgC0ITAAtCEwALQhMAC0ITAAtCEwALQhMAC0ITAAtCEwALQhMAC08ZgeYEibiGyoLS0vkuLN/padFaVNG4r3iEi9iLSaHge4QcNnRUV9JjCOSE3jZ0VL6td+tGLf2k8+aFxfXG16E+B2fSEwTfWRcfl7/+2m+2sKCnebHgP0Je4NjCP7mraWPrt76TsP1z713DbTc4C+yJWBaS2rWFN2b/60fStWl5jeAvRl7gtMm+eJ7VfOvb7FX9pmegrQ17np19T7awtWz9k8fOy1xAXoHVwTmOYtJffvmD3vMdM7APydKwLTvKXkke1Xzp1vegeAQ1n/HEzDuk33l06+7nbTOwAcye57MI6U7PztojtNzwBwdFYHpmrxkhtb/CU8oQv0UtYGptm/bWH5vY+/bnoHgGOzNTBfl92Rf5fpEQCOz8rAVBV/+XjDJ584pncAOD4LA+PU1t758FOmVwA4MesC07yldGXjhs11pncAODHrArNv7cfLTW8AEBjbAtNau9FfYHoEgMDYFRjH+bjxjVV7TM8AEBirAtPy5fa3TW8AEDirArN3VeG7pjcACJxVgQlz1GbTGwAEzqbANFW88yHPvwAWsSgwTr1s5g4MYBOLAqP4g2iAZSwKDADbEBgA2lj/lpk6RWVlnuZNSkg1vQOwUcNnRf9HYI4jfsaUG+Pycqab3gHYaMeseWN5iARAGwIDQBsCA0AbAgNAGwIDQBsCA0AbAgNAGwIDQBsCA0AbAgNAGwIDQBsCA0AbAgNAGwIDQBsCA0AbAgNAGwIDQBsCA0AbAgNAGwIDQBsCA0AbAgNAGwIDQBsCA0AbAgNAGwIDQBsCA0AbAgNAG/74/XE5f3Uc/h+ha5SI1xGJVkpSRSRdRAaY3mQKPzzHsWP2/D+KdPwHdF9s7oQET6IvOyb7tOyorIxx3uSEs0VUuOldoUBgAM3qVrxXISIrqxcvXdnxcVRW5qD+107LGzhi6OXepIRJbn6qwrXfGNBbNa4vrq68+uYX/Gdemlv58DMZjjgfm96ki02B6Wd6ABBslY8u/so/9tKf1Xzuv13EqTO9J9isCYwjEmN6A6BD267K1u8umn7/1nOn/qClrPwZ03uCyZrAKJHowXOmxZreAejS4i+t2Xrm5OnNW0qeNr0lWKwJzPeU/KPpCYBu238997qmLdv+vePOjektPWVVYCLT03JMbwB0ayurbN026cp5NcsLrxSR/ab39IRVgYm94OyJpjcAofLd9fP/u3lLidXnYVkVGCUyLiors7/pHUColN36wG3iyDrTO7rLqsCISFT/vJxJpkcAodLweVH115OuyHEc5wvTW7rDtsBI3Lgx55veAIRSs7+0bvcjz9xtekd3WBeYiOFpF3oSfRGmdwChtPeV5cscR4pM7+gq6wIjSiUMmnLBeaZnAKHUWlbZXvfmu/mmd3SVfYEREd8N0+aZ3gCEWsXDzz0ljpSY3tEVVgZGlMpOKVw60/QMIJRatpbsr12xer7pHV1hZ2BEZMDQxMdic3PSTO8AQqnq+aUvOOJUmd4RKGsDIyKexDtmPyipqaZ3ACHT+PEmp33H7ndM7wiUzYERb3LCJam3X32D6R1AKNWsLFxpekOgrA5Mh7i8nAeGvfSfZ5reAYRKw/pia87stT4wIhIeecbpq1IeuffnpocAodC6s9wvIi2mdwTCDYHp0H/AP41/PTn/notMDwF0a9qwuckR2WR6RyDcEpgOUQPzzl568pJHZ5keAuimxNlqekMg3BSYDp6Yn2Tlp/9l2Z8iszL67N+igfs5ospNbwiE2wLzvfDkhF8N+/MTX6TkL7g5KpvQwH08LftrTW8IhCsD8zcqaUBezqKhy/5rc+pLj10eMTzNxd8r+prIBjve6a4v/NAlx50x6sVhq/70ZWr+PbfF5uac5kn09YXvGzCuz/xlR6VkeFze2b/v+E9EKtvKKtc0fFa0qaWsYmvj+uJS9bfTrxscRzWb3grrtNe9udqa0/dDqc8E5jA+T5JvclxezmTTQ+ACjmzZPGzcKaZn9EY8VACgDYEBoA2BAaANgQGgDYEBoA2BAaANgQGgDYEBoA2BAaANgQGgDYEBoA2BAaANgQGgDYEBoA2BAaANgQGgDYEBoA2BAaANgQGgDYEBoA2BAaANgQGgDYEBoA2BAaANgQGgDYEBoA2BAaANgQGgTec/ft8kIvsMbgGs5Ig0mN7QWx0MzI7Z86bJbJlmdg4AN+EhEgBtCAwAbQgMYKGGuDCP6Q2BIDCAhfaHOTGmNwSCwAA2cmSI6QmBIDCAhZSSH5reEAgCA1jG8+OsfiLqVNM7AkFgAMtE+QZ0xKW/6R2BIDCAZQZOmphlekOgCAxgmX6pg39qekOgCAxgkfDhad6o7BEXmd4RKAIDWGTAA/dcqsSOX1ELgQHs4UnyeQePGjrP9I6uIDCAJeKnT5mqLPn19AEEBrBBRobEz5hyo+kZXUVgAAskXJxziSgZYXpHVxEYoJeLO2/CDwbPuOxR0zu6g8AAvVh4elpE6uMLVoiSFNNbuoPAAL1Y2rMPPihKWffQ6AACA/RSqfn3/M6TkjDL9I6esOJdsYC+5uQlj94W85OshaZ39BSBAXoRb5KvX+pr+Q9F+ZLnmN4SDAQG6CUGjhyp4hfNfTLClzzd9JZgITBAL5B0+6xzB11z2QMiMtL0lmAiMIAh3kSfGjjlgrMGTrngBm9SwsWm9+hAYIBQy0gV3znnjB98w7S7lVITTM/RicAAIRCXNyHBm56WHTl82M8G5OZMFiWnmN4UCgcDc9L0X/wqevQIa96KD+i1HOknIhGeMdnx0b64JBGVJiKppmeZcDAw0dkj8uJycy4zOweAm3AmLwBtCAwAbQgMAG0IDABtCAwAbQgMAG0IDABtCAwAbQgMAG06B8YxuAOA6ziHBKbd4BIArqPaDgbGEWkyOwaAmzjiNB0MjBKnyuwcAO6iqjo9RFLlJqcAcJX2Fm90xcHAtH5X+Y3ZPQBc5Kvm1wraDwam4fNNm8zuAeAWTd6od6Tzr6kb/dv9Ik6D0VUAXKFu0eNvSefAtPlLnHZRnxpdBcAN6pu/+uY9OfxM3vqCwhXGJgFwhdad5e/WrnynXg4PTO2K91YZWwXAFRrWF7914N9hh31io4isN7IKgBu01xYUvnHgg0MC01ZWsb/8rQ9n8rIBAN3RWlZRUPfmmoOnvBzxauqqa2752BH1fsiXAbBe9cvLn+n88VHfrqHq6SX5IVsEwB0cZ93el5cXdL7oqIGpeWnlnx2RrSEbBsB27RWPPXdF267K1s4X9jvqNaurJSw2ujo6e8QlIZsHwFoNFWVP7pzxu2cPv/yogenQ9kXpxpgJY+I88YPGal8HwFqOI9u/u+K2yW27KpoP/9wx3zKzubJSvl74x7ki8hftCwFYa/cji29p3LCp5mifO/578q5ZIztm3XW1I06lrnEArOU0+0vu3fNKwf8c6wrHfIh0QLO/tLLZG7lk4JjTzxMRX9AnArBSbcHqO7f/65wFzr76Y17nhIHp0PLXT2vbnfbC/mOzZ4iIN5gjAdinPiLugW8nTpl/ousFFJgOjR99vjvih0M3RJwyNFdEInu8EIB9HJGaFYV3fTtxyrxArh5wYDrUvrnaX1tasTj29B9l9IuN+VG3RwKwUV3disKrdsyeH/CJuF0KTIf2r/wN9e9/8nL0GaNO9cQPyuzyRAA2+qr0iWVjq+74fZdeRtTlwHRo37PXqXv3g1cj433bvKekjVRKDerOcQD0ek5bWeUL26f+5l8al72xq6tfrHp6655EX2RK/oK5MaNHXCciyT09HoBeoa2houz5qrv/cH/dm6u3dPcgPQ7MAVFjRnqTF950a0T6sHkiKjxYxwUQas6aPQUfzd01+5Z1PT1S0AJzQNSFk4acNOnMi6OzMnO9yUN+3nFRsG8DQFC1i8gXjeuLV9W+vvqFqmdf3hCsAwc9MJ1FZWdEeROHZMWen5OllGTE5o4fplRYmiMSr0RiRSRC9wYA32sVkUYRZ7eI2tVQUbO97dPPtrR/W75xb/HXaxvfWLnb9EAA6JLjvxYJAHqAwADQhsAA0IbAANCGwADQhsAA0IbAANCGwADQhsAA0IbAANCGwADQhsAA0IbAANCGwADQhsAA0IbAANCGwADQhsAA0IbAANCGwADQhsAA0IbAANCGwADQhsAA0IbAANCGwADQ5v8DAAD//w3i2F0bNKxPAAAAAElFTkSuQmCC;fontStyle=1;fontSize=10;strokeWidth=5;" parent="1" vertex="1">
          <mxGeometry x="65.99999999999994" y="376" width="28" height="28" as="geometry" />
        </mxCell>
        <mxCell id="Yvy-EgmFL5nBeR9nWpUw-11" value="" style="aspect=fixed;sketch=0;html=1;dashed=0;whitespace=wrap;verticalLabelPosition=bottom;verticalAlign=top;fillColor=#2875E2;strokeColor=#ffffff;points=[[0.005,0.63,0],[0.1,0.2,0],[0.9,0.2,0],[0.5,0,0],[0.995,0.63,0],[0.72,0.99,0],[0.5,1,0],[0.28,0.99,0]];shape=mxgraph.kubernetes.icon2;prIcon=svc" parent="1" vertex="1">
          <mxGeometry x="222" y="354" width="25" height="24" as="geometry" />
        </mxCell>
        <mxCell id="9GPCUyVxjq0LYoWIFZi_-3" value="ServiceExport" style="rounded=0;whiteSpace=wrap;html=1;strokeColor=#FF0000;" parent="1" vertex="1">
          <mxGeometry x="590" y="375" width="120" height="30" as="geometry" />
        </mxCell>
        <mxCell id="9GPCUyVxjq0LYoWIFZi_-5" value="" style="shape=image;verticalLabelPosition=bottom;labelBackgroundColor=default;verticalAlign=top;aspect=fixed;imageAspect=0;image=data:image/png,iVBORw0KGgoAAAANSUhEUgAAARgAAAEYCAYAAACHjumMAAAQp0lEQVR4nOzdC3SU5Z3H8f8TZnIlAQwTcusaaKhrgkLCKRZbhEgVTXTXC1tcW7HAqiiIWry1Kigra5WjHjVrXbV4qS4qS12VIHgJgrbrDUFIUBkkQZGQhBCSkHvCuyf2QMN9kswzT5433885nkMmk3d+8Zx8z8zknUmYAIAmBAaANgQGgDYEBoA2BAaANgQGgDYEBoA2BAaANgQGgDYEBoA2BAaANgQGgDYEBoA2BAaANgQGgDYEBoA2BAaANgQGgDYEBoA2BAaANgQGgDYEBoA2BAaANgQGgDYEBoA2BAaANp5Q3ljCjdMTHMcZJSIpIhIvItEiokK5AeijmkVknyPyjYj467b7v27+3w9adN+oth/uqKzMgbG5OZPCkxLOjM2dMEopdaqI+HTdHoAuaRbH2da2c/fGmqLP32t8fe3ahnVFX7SVVzrBvJGgBiZqVEZs3MypU+PP/elkR8lYJRIRzOMD0OqbhnWbX9yz+KUXazf6i2XHjh4fMCiBiRg+tF/Sgt9Mjf7JqPtEZEgwjgnAHNWuXt157Z0zqt9+r7onx+nX0yHxM6aclfLUfa+GpyZeIyL9e3o8AL1AmJwae2HOlRHD0yJbd1YUte2qbOrOYbp9Dyb26isy0+Zetag9XJ3HE7WAmznlu59eek3Fwsde6+pXdisMg+f8elTCTTPe5x4L0Ec44tRHxj20a/w/39rsL90f6Jd1KTCexMEyaMHtv/SdM+YRERXfraEArNWys+K10ktn/rJtV2V9INcPODCeRF/Y0GV/eMKbPOSqHi0EYLXWsooPv3njw0ua71tUdqLrBhyYYW8/c1NkevpDPV4HwAWc77aeO3V0i7+0/HjXCuilAimFr1wRmZ5+X9C2AbCcSjn52QdfjhieFn28a50wMKn5C6YNGJr0vHDSHIBOvMkJ44e99fwH0dkjjvl87HHPg4m+7caUIZefv1xEERcAR1CikiKzMmOqX3h1xdE+f8zAxJyWEZv24C3viqh/0LoQgNU88YNGtdc2Lm/cULTr8M8d8yGSb/71C0XU6drXAbBdePw9M58MTz/5iDssRw1M7Pln+aJHZ14TkmkArOdt7/fjpAU3zz788qMG5qQZl80SUeEhWQbAFWLGjloQlZWZ3PmyIwLTf+zosJjRp10d0mUA3CDupBm/mNr5giMCM+A/fjtTRJJCOguAK8Tl5kz1JA4++PEhgYnMzoyNSxtyr4lhAOynlDo1Lm/iuAMfHxKY2HFjcpTIICPLALhCVFZm3oF/HxKY6LPOmGhkEQDXGJA74WBHDg1MdsYkI4sAuIdS2fFzpp4snQMTlze+v3LUj4wOA+AGYWE5E3Olc2AcR2WI4q0vAfTc4JFDJ8gh92DOn5hhdBEA11BKjZfU1L8HRikn1ewkAC4yJPb04f07PcnrDDa5BoDbOIM7BUYNMDkFgLsoUQM7/5qaFzcCCCInvHNgAnp/XgAIjAojKgC0ITAAtCEwALQhMAC0ITAAtCEwALQhMAC0ITAAtCEwALQhMAC08ZgeYEibiGyoLS0vkuLN/padFaVNG4r3iEi9iLSaHge4QcNnRUV9JjCOSE3jZ0VL6td+tGLf2k8+aFxfXG16E+B2fSEwTfWRcfl7/+2m+2sKCnebHgP0Je4NjCP7mraWPrt76TsP1z713DbTc4C+yJWBaS2rWFN2b/60fStWl5jeAvRl7gtMm+eJ7VfOvb7FX9pmegrQ17np19T7awtWz9k8fOy1xAXoHVwTmOYtJffvmD3vMdM7APydKwLTvKXkke1Xzp1vegeAQ1n/HEzDuk33l06+7nbTOwAcye57MI6U7PztojtNzwBwdFYHpmrxkhtb/CU8oQv0UtYGptm/bWH5vY+/bnoHgGOzNTBfl92Rf5fpEQCOz8rAVBV/+XjDJ584pncAOD4LA+PU1t758FOmVwA4MesC07yldGXjhs11pncAODHrArNv7cfLTW8AEBjbAtNau9FfYHoEgMDYFRjH+bjxjVV7TM8AEBirAtPy5fa3TW8AEDirArN3VeG7pjcACJxVgQlz1GbTGwAEzqbANFW88yHPvwAWsSgwTr1s5g4MYBOLAqP4g2iAZSwKDADbEBgA2lj/lpk6RWVlnuZNSkg1vQOwUcNnRf9HYI4jfsaUG+Pycqab3gHYaMeseWN5iARAGwIDQBsCA0AbAgNAGwIDQBsCA0AbAgNAGwIDQBsCA0AbAgNAGwIDQBsCA0AbAgNAGwIDQBsCA0AbAgNAGwIDQBsCA0AbAgNAGwIDQBsCA0AbAgNAGwIDQBsCA0AbAgNAGwIDQBsCA0AbAgNAG/74/XE5f3Uc/h+ha5SI1xGJVkpSRSRdRAaY3mQKPzzHsWP2/D+KdPwHdF9s7oQET6IvOyb7tOyorIxx3uSEs0VUuOldoUBgAM3qVrxXISIrqxcvXdnxcVRW5qD+107LGzhi6OXepIRJbn6qwrXfGNBbNa4vrq68+uYX/Gdemlv58DMZjjgfm96ki02B6Wd6ABBslY8u/so/9tKf1Xzuv13EqTO9J9isCYwjEmN6A6BD267K1u8umn7/1nOn/qClrPwZ03uCyZrAKJHowXOmxZreAejS4i+t2Xrm5OnNW0qeNr0lWKwJzPeU/KPpCYBu238997qmLdv+vePOjektPWVVYCLT03JMbwB0ayurbN026cp5NcsLrxSR/ab39IRVgYm94OyJpjcAofLd9fP/u3lLidXnYVkVGCUyLiors7/pHUColN36wG3iyDrTO7rLqsCISFT/vJxJpkcAodLweVH115OuyHEc5wvTW7rDtsBI3Lgx55veAIRSs7+0bvcjz9xtekd3WBeYiOFpF3oSfRGmdwChtPeV5cscR4pM7+gq6wIjSiUMmnLBeaZnAKHUWlbZXvfmu/mmd3SVfYEREd8N0+aZ3gCEWsXDzz0ljpSY3tEVVgZGlMpOKVw60/QMIJRatpbsr12xer7pHV1hZ2BEZMDQxMdic3PSTO8AQqnq+aUvOOJUmd4RKGsDIyKexDtmPyipqaZ3ACHT+PEmp33H7ndM7wiUzYERb3LCJam3X32D6R1AKNWsLFxpekOgrA5Mh7i8nAeGvfSfZ5reAYRKw/pia87stT4wIhIeecbpq1IeuffnpocAodC6s9wvIi2mdwTCDYHp0H/AP41/PTn/notMDwF0a9qwuckR2WR6RyDcEpgOUQPzzl568pJHZ5keAuimxNlqekMg3BSYDp6Yn2Tlp/9l2Z8iszL67N+igfs5ospNbwiE2wLzvfDkhF8N+/MTX6TkL7g5KpvQwH08LftrTW8IhCsD8zcqaUBezqKhy/5rc+pLj10eMTzNxd8r+prIBjve6a4v/NAlx50x6sVhq/70ZWr+PbfF5uac5kn09YXvGzCuz/xlR6VkeFze2b/v+E9EKtvKKtc0fFa0qaWsYmvj+uJS9bfTrxscRzWb3grrtNe9udqa0/dDqc8E5jA+T5JvclxezmTTQ+ACjmzZPGzcKaZn9EY8VACgDYEBoA2BAaANgQGgDYEBoA2BAaANgQGgDYEBoA2BAaANgQGgDYEBoA2BAaANgQGgDYEBoA2BAaANgQGgDYEBoA2BAaANgQGgDYEBoA2BAaANgQGgDYEBoA2BAaANgQGgDYEBoA2BAaANgQGgTec/ft8kIvsMbgGs5Ig0mN7QWx0MzI7Z86bJbJlmdg4AN+EhEgBtCAwAbQgMYKGGuDCP6Q2BIDCAhfaHOTGmNwSCwAA2cmSI6QmBIDCAhZSSH5reEAgCA1jG8+OsfiLqVNM7AkFgAMtE+QZ0xKW/6R2BIDCAZQZOmphlekOgCAxgmX6pg39qekOgCAxgkfDhad6o7BEXmd4RKAIDWGTAA/dcqsSOX1ELgQHs4UnyeQePGjrP9I6uIDCAJeKnT5mqLPn19AEEBrBBRobEz5hyo+kZXUVgAAskXJxziSgZYXpHVxEYoJeLO2/CDwbPuOxR0zu6g8AAvVh4elpE6uMLVoiSFNNbuoPAAL1Y2rMPPihKWffQ6AACA/RSqfn3/M6TkjDL9I6esOJdsYC+5uQlj94W85OshaZ39BSBAXoRb5KvX+pr+Q9F+ZLnmN4SDAQG6CUGjhyp4hfNfTLClzzd9JZgITBAL5B0+6xzB11z2QMiMtL0lmAiMIAh3kSfGjjlgrMGTrngBm9SwsWm9+hAYIBQy0gV3znnjB98w7S7lVITTM/RicAAIRCXNyHBm56WHTl82M8G5OZMFiWnmN4UCgcDc9L0X/wqevQIa96KD+i1HOknIhGeMdnx0b64JBGVJiKppmeZcDAw0dkj8uJycy4zOweAm3AmLwBtCAwAbQgMAG0IDABtCAwAbQgMAG0IDABtCAwAbQgMAG06B8YxuAOA6ziHBKbd4BIArqPaDgbGEWkyOwaAmzjiNB0MjBKnyuwcAO6iqjo9RFLlJqcAcJX2Fm90xcHAtH5X+Y3ZPQBc5Kvm1wraDwam4fNNm8zuAeAWTd6od6Tzr6kb/dv9Ik6D0VUAXKFu0eNvSefAtPlLnHZRnxpdBcAN6pu/+uY9OfxM3vqCwhXGJgFwhdad5e/WrnynXg4PTO2K91YZWwXAFRrWF7914N9hh31io4isN7IKgBu01xYUvnHgg0MC01ZWsb/8rQ9n8rIBAN3RWlZRUPfmmoOnvBzxauqqa2752BH1fsiXAbBe9cvLn+n88VHfrqHq6SX5IVsEwB0cZ93el5cXdL7oqIGpeWnlnx2RrSEbBsB27RWPPXdF267K1s4X9jvqNaurJSw2ujo6e8QlIZsHwFoNFWVP7pzxu2cPv/yogenQ9kXpxpgJY+I88YPGal8HwFqOI9u/u+K2yW27KpoP/9wx3zKzubJSvl74x7ki8hftCwFYa/cji29p3LCp5mifO/578q5ZIztm3XW1I06lrnEArOU0+0vu3fNKwf8c6wrHfIh0QLO/tLLZG7lk4JjTzxMRX9AnArBSbcHqO7f/65wFzr76Y17nhIHp0PLXT2vbnfbC/mOzZ4iIN5gjAdinPiLugW8nTpl/ousFFJgOjR99vjvih0M3RJwyNFdEInu8EIB9HJGaFYV3fTtxyrxArh5wYDrUvrnaX1tasTj29B9l9IuN+VG3RwKwUV3disKrdsyeH/CJuF0KTIf2r/wN9e9/8nL0GaNO9cQPyuzyRAA2+qr0iWVjq+74fZdeRtTlwHRo37PXqXv3g1cj433bvKekjVRKDerOcQD0ek5bWeUL26f+5l8al72xq6tfrHp6655EX2RK/oK5MaNHXCciyT09HoBeoa2houz5qrv/cH/dm6u3dPcgPQ7MAVFjRnqTF950a0T6sHkiKjxYxwUQas6aPQUfzd01+5Z1PT1S0AJzQNSFk4acNOnMi6OzMnO9yUN+3nFRsG8DQFC1i8gXjeuLV9W+vvqFqmdf3hCsAwc9MJ1FZWdEeROHZMWen5OllGTE5o4fplRYmiMSr0RiRSRC9wYA32sVkUYRZ7eI2tVQUbO97dPPtrR/W75xb/HXaxvfWLnb9EAA6JLjvxYJAHqAwADQhsAA0IbAANCGwADQhsAA0IbAANCGwADQhsAA0IbAANCGwADQhsAA0IbAANCGwADQhsAA0IbAANCGwADQhsAA0IbAANCGwADQhsAA0IbAANCGwADQhsAA0IbAANCGwADQ5v8DAAD//w3i2F0bNKxPAAAAAElFTkSuQmCC;fontStyle=1;fontSize=10;strokeWidth=5;" parent="1" vertex="1">
          <mxGeometry x="732.5" y="380" width="28" height="28" as="geometry" />
        </mxCell>
        <mxCell id="9GPCUyVxjq0LYoWIFZi_-6" value="" style="shape=image;verticalLabelPosition=bottom;labelBackgroundColor=default;verticalAlign=top;aspect=fixed;imageAspect=0;image=https://res.cloudinary.com/startup-grind/image/upload/c_fill,dpr_2.0,f_auto,g_center,q_auto:good/v1/gcs/platform-data-cncf/events/Strimzi%20icon%20color_AIt8JiF.png;" parent="1" vertex="1">
          <mxGeometry x="58.49" y="321.79" width="43.01" height="38.21" as="geometry" />
        </mxCell>
      </root>
    </mxGraphModel>
  </diagram>
</mxfile>
